<svg width="23" height="23" viewBox="0 0 23 23" fill="none" xmlns="http://www.w3.org/2000/svg">
<g id="material-symbols:arrow-drop-down-rounded">
<path id="Vector" d="M10.9976 9.12796L7.52363 12.6019C7.47572 12.6498 7.43994 12.7016 7.4163 12.7572C7.39266 12.8128 7.38052 12.8728 7.37988 12.9373C7.37988 13.0651 7.42397 13.1769 7.51213 13.2728C7.6003 13.3686 7.71594 13.4165 7.85905 13.4165H15.1424C15.2861 13.4165 15.4021 13.3686 15.4903 13.2728C15.5784 13.1769 15.6222 13.0651 15.6215 12.9373C15.6215 12.9054 15.5736 12.7936 15.4778 12.6019L12.0038 9.12796C11.924 9.0481 11.8441 8.9922 11.7643 8.96025C11.6844 8.92831 11.5965 8.91234 11.5007 8.91234C11.4049 8.91234 11.317 8.92831 11.2372 8.96025C11.1573 8.9922 11.0775 9.0481 10.9976 9.12796Z" fill="white"/>
</g>
</svg>
