<svg width="24" height="24" viewBox="0 0 24 24" fill="none" xmlns="http://www.w3.org/2000/svg">
<g id="basil:book-open-outline">
<path id="Vector" fill-rule="evenodd" clip-rule="evenodd" d="M11.602 18.6361C11.7218 18.7093 11.8597 18.7474 12 18.7461C12.1403 18.7474 12.2782 18.7093 12.398 18.6361L13.533 17.9551C14.6313 17.2961 15.8671 16.8999 17.1439 16.7976C18.4206 16.6952 19.7037 16.8895 20.893 17.3651C21.783 17.7211 22.75 17.0651 22.75 16.1081V4.45012C22.75 3.87212 22.398 3.35312 21.861 3.13812C20.3292 2.52545 18.6765 2.27526 17.0319 2.4071C15.3874 2.53894 13.7956 3.04923 12.381 3.89812L12 4.12412L11.618 3.89512C10.2034 3.04623 8.61159 2.53594 6.96707 2.4041C5.32255 2.27226 3.66982 2.52245 2.138 3.13512C1.87536 3.24023 1.65031 3.42175 1.49199 3.6562C1.33367 3.89065 1.24937 4.16722 1.25 4.45012V16.1101C1.25 17.0671 2.217 17.7221 3.107 17.3661C4.29626 16.8905 5.57939 16.6962 6.85615 16.7986C8.13291 16.9009 9.36871 17.2971 10.467 17.9561L11.602 18.6361ZM2.75 4.50812V15.8951C4.13205 15.3772 5.61316 15.1778 7.08297 15.3118C8.55279 15.4458 9.97342 15.9098 11.239 16.6691L11.25 16.6751V5.42512L10.847 5.18312C9.6391 4.45827 8.28088 4.02047 6.87705 3.90344C5.47322 3.78641 4.06126 3.99328 2.75 4.50812ZM12.761 16.6681L12.75 16.6751V5.42512L13.153 5.18312C14.3609 4.45827 15.7191 4.02047 17.123 3.90344C18.5268 3.78641 19.9388 3.99328 21.25 4.50812V15.8951C19.868 15.3772 18.3868 15.1778 16.917 15.3118C15.4472 15.4458 14.0266 15.9098 12.761 16.6691V16.6681Z" fill="white"/>
<path id="Vector_2" d="M9.27519 19.0421C8.28115 18.4623 7.15098 18.1567 6.00019 18.1567C4.8494 18.1567 3.71924 18.4623 2.72519 19.0421L2.62219 19.1021C2.5371 19.1517 2.46261 19.2176 2.40299 19.2961C2.34336 19.3745 2.29977 19.4639 2.2747 19.5592C2.24963 19.6544 2.24357 19.7537 2.25686 19.8513C2.27016 19.9489 2.30255 20.043 2.35219 20.1281C2.40183 20.2132 2.46775 20.2877 2.54617 20.3473C2.6246 20.4069 2.714 20.4505 2.80927 20.4756C2.90455 20.5006 3.00382 20.5067 3.10144 20.4934C3.19905 20.4801 3.2931 20.4477 3.37819 20.3981L3.48119 20.3381C4.24579 19.8922 5.11506 19.6572 6.00019 19.6572C6.88533 19.6572 7.7546 19.8922 8.51919 20.3381L9.60719 20.9721C10.3335 21.3957 11.1593 21.6189 12.0002 21.6189C12.841 21.6189 13.6668 21.3957 14.3932 20.9721L15.4812 20.3381C16.2458 19.8922 17.1151 19.6572 18.0002 19.6572C18.8853 19.6572 19.7546 19.8922 20.5192 20.3381L20.6222 20.3981C20.7941 20.4983 20.9987 20.5262 21.1911 20.4756C21.3835 20.4249 21.5479 20.2999 21.6482 20.1281C21.7484 19.9562 21.7763 19.7516 21.7257 19.5592C21.6751 19.3668 21.5501 19.2023 21.3782 19.1021L21.2752 19.0421C20.2811 18.4623 19.151 18.1567 18.0002 18.1567C16.8494 18.1567 15.7192 18.4623 14.7252 19.0421L13.6382 19.6761C13.1411 19.9662 12.5758 20.119 12.0002 20.119C11.4246 20.119 10.8593 19.9662 10.3622 19.6761L9.27519 19.0421Z" fill="white"/>
</g>
</svg>
