<svg width="44" height="44" viewBox="0 0 44 44" fill="none" xmlns="http://www.w3.org/2000/svg">
<g id="ic:baseline-discord">
<path id="Vector" d="M35.3279 9.77143C32.8896 8.63476 30.2496 7.80976 27.4996 7.33309C27.4755 7.33232 27.4515 7.33685 27.4293 7.34635C27.4071 7.35585 27.3873 7.3701 27.3712 7.38809C27.0412 7.99309 26.6562 8.78143 26.3996 9.38643C23.4827 8.94643 20.5164 8.94643 17.5996 9.38643C17.3429 8.76309 16.9579 7.99309 16.6096 7.38809C16.5912 7.35143 16.5362 7.33309 16.4812 7.33309C13.7312 7.80976 11.1096 8.63476 8.6529 9.77143C8.63456 9.77143 8.61623 9.78976 8.5979 9.80809C3.61123 17.2698 2.23623 24.5298 2.91456 31.7164C2.91456 31.7531 2.9329 31.7898 2.96956 31.8081C6.26956 34.2281 9.44123 35.6948 12.5762 36.6664C12.6312 36.6848 12.6862 36.6664 12.7046 36.6298C13.4379 35.6214 14.0979 34.5581 14.6662 33.4398C14.7029 33.3664 14.6662 33.2931 14.5929 33.2748C13.5479 32.8714 12.5579 32.3948 11.5862 31.8448C11.5129 31.8081 11.5129 31.6981 11.5679 31.6431C11.7696 31.4964 11.9712 31.3314 12.1729 31.1848C12.2096 31.1481 12.2646 31.1481 12.3012 31.1664C18.6079 34.0448 25.4096 34.0448 31.6429 31.1664C31.6796 31.1481 31.7346 31.1481 31.7712 31.1848C31.9729 31.3498 32.1746 31.4964 32.3762 31.6614C32.4496 31.7164 32.4496 31.8264 32.3579 31.8631C31.4046 32.4314 30.3962 32.8898 29.3512 33.2931C29.2779 33.3114 29.2596 33.4031 29.2779 33.4581C29.8646 34.5764 30.5246 35.6398 31.2396 36.6481C31.2946 36.6664 31.3496 36.6848 31.4046 36.6664C34.5579 35.6948 37.7296 34.2281 41.0296 31.8081C41.0662 31.7898 41.0846 31.7531 41.0846 31.7164C41.8912 23.4114 39.7462 16.2064 35.4012 9.80809C35.3829 9.78976 35.3646 9.77143 35.3279 9.77143ZM15.6196 27.3348C13.7312 27.3348 12.1546 25.5931 12.1546 23.4481C12.1546 21.3031 13.6946 19.5614 15.6196 19.5614C17.5629 19.5614 19.1029 21.3214 19.0846 23.4481C19.0846 25.5931 17.5446 27.3348 15.6196 27.3348ZM28.3979 27.3348C26.5096 27.3348 24.9329 25.5931 24.9329 23.4481C24.9329 21.3031 26.4729 19.5614 28.3979 19.5614C30.3412 19.5614 31.8812 21.3214 31.8629 23.4481C31.8629 25.5931 30.3412 27.3348 28.3979 27.3348Z" fill="white"/>
</g>
</svg>
