<svg width="593" height="303" viewBox="0 0 593 303" fill="none" xmlns="http://www.w3.org/2000/svg">
<path fill-rule="evenodd" clip-rule="evenodd" d="M296.614 -58.1226C132.594 -58.1226 0 75.4488 0 240.695C0 372.785 84.9575 484.596 202.816 524.17C217.551 527.145 222.949 517.74 222.949 509.829C222.949 502.902 222.463 479.156 222.463 454.415C139.952 472.229 122.77 418.794 122.77 418.794C109.51 384.163 89.8632 375.262 89.8632 375.262C62.8575 356.957 91.8304 356.957 91.8304 356.957C121.787 358.936 137.506 387.629 137.506 387.629C164.02 433.141 206.744 420.282 223.933 412.364C226.385 393.069 234.248 379.712 242.596 372.293C176.788 365.366 107.549 339.641 107.549 224.861C107.549 192.208 119.328 165.494 137.991 144.718C135.047 137.298 124.731 106.62 140.942 65.5585C140.942 65.5585 165.987 57.6413 222.457 96.2313C246.634 89.6904 271.567 86.3629 296.614 86.3349C321.658 86.3349 347.189 89.8017 370.764 96.2313C427.24 57.6413 452.285 65.5585 452.285 65.5585C468.496 106.62 458.174 137.298 455.23 144.718C474.385 165.494 485.678 192.208 485.678 224.861C485.678 339.641 416.439 364.868 350.139 372.293C360.946 381.692 370.272 399.499 370.272 427.701C370.272 467.772 369.786 499.933 369.786 509.823C369.786 517.74 375.19 527.145 389.919 524.176C507.778 484.59 592.735 372.785 592.735 240.695C593.221 75.4488 460.141 -58.1226 296.614 -58.1226Z" fill="white"/>
</svg>
