<svg width="593" height="58" viewBox="0 0 593 58" fill="none" xmlns="http://www.w3.org/2000/svg">
<path fill-rule="evenodd" clip-rule="evenodd" d="M296.614 -0.122559C132.594 -0.122559 0 133.449 0 298.695C0 430.785 84.9575 542.596 202.816 582.17C217.551 585.145 222.949 575.74 222.949 567.829C222.949 560.902 222.463 537.156 222.463 512.415C139.952 530.229 122.77 476.794 122.77 476.794C109.51 442.163 89.8632 433.262 89.8632 433.262C62.8575 414.957 91.8304 414.957 91.8304 414.957C121.787 416.936 137.506 445.629 137.506 445.629C164.02 491.141 206.744 478.282 223.933 470.364C226.385 451.069 234.248 437.712 242.596 430.293C176.788 423.366 107.549 397.641 107.549 282.861C107.549 250.208 119.328 223.494 137.991 202.718C135.047 195.298 124.731 164.62 140.942 123.558C140.942 123.558 165.987 115.641 222.457 154.231C246.634 147.69 271.567 144.363 296.614 144.335C321.658 144.335 347.189 147.802 370.764 154.231C427.24 115.641 452.285 123.558 452.285 123.558C468.496 164.62 458.174 195.298 455.23 202.718C474.385 223.494 485.678 250.208 485.678 282.861C485.678 397.641 416.439 422.868 350.139 430.293C360.946 439.692 370.272 457.499 370.272 485.701C370.272 525.772 369.786 557.933 369.786 567.823C369.786 575.74 375.19 585.145 389.919 582.176C507.778 542.59 592.735 430.785 592.735 298.695C593.221 133.449 460.141 -0.122559 296.614 -0.122559Z" fill="#04080A"/>
</svg>
