<svg width="44" height="44" viewBox="0 0 44 44" fill="none" xmlns="http://www.w3.org/2000/svg">
<path d="M22.0003 3.6665C19.5928 3.6665 17.2088 4.14071 14.9845 5.06205C12.7602 5.98338 10.7391 7.33381 9.0367 9.03621C5.59853 12.4744 3.66699 17.1375 3.66699 21.9998C3.66699 30.1032 8.92866 36.9782 16.207 39.4165C17.1237 39.5632 17.417 38.9948 17.417 38.4998V35.4015C12.3387 36.5015 11.257 32.9448 11.257 32.9448C10.4137 30.8182 9.22199 30.2498 9.22199 30.2498C7.55366 29.1132 9.35033 29.1498 9.35033 29.1498C11.1837 29.2782 12.1553 31.0382 12.1553 31.0382C13.7503 33.8248 16.4453 32.9998 17.4903 32.5598C17.6553 31.3682 18.132 30.5615 18.6453 30.1032C14.5753 29.6448 10.3037 28.0682 10.3037 21.0832C10.3037 19.0482 11.0003 17.4165 12.192 16.1148C12.0087 15.6565 11.367 13.7498 12.3753 11.2748C12.3753 11.2748 13.9153 10.7798 17.417 13.1448C18.8653 12.7415 20.442 12.5398 22.0003 12.5398C23.5587 12.5398 25.1353 12.7415 26.5837 13.1448C30.0853 10.7798 31.6253 11.2748 31.6253 11.2748C32.6337 13.7498 31.992 15.6565 31.8087 16.1148C33.0003 17.4165 33.697 19.0482 33.697 21.0832C33.697 28.0865 29.407 29.6265 25.3187 30.0848C25.9787 30.6532 26.5837 31.7715 26.5837 33.4765V38.4998C26.5837 38.9948 26.877 39.5815 27.812 39.4165C35.0903 36.9598 40.3337 30.1032 40.3337 21.9998C40.3337 19.5923 39.8595 17.2083 38.9381 14.984C38.0168 12.7597 36.6664 10.7386 34.964 9.03621C33.2615 7.33381 31.2405 5.98338 29.0162 5.06205C26.7919 4.14071 24.4079 3.6665 22.0003 3.6665Z" fill="white"/>
</svg>
