<svg width="183" height="35" viewBox="0 0 183 35" fill="none" xmlns="http://www.w3.org/2000/svg">
<g id="LOGO" clip-path="url(#clip0_103_1221)">
<g id="g1">
<g id="g2">
<path id="path8" d="M120.8 3.49414C113.933 3.49042 108.297 8.09877 107.148 14.6584C106.915 15.9883 106.915 18.2566 107.148 19.5865C107.613 22.2411 108.791 24.5717 110.635 26.4899C112.754 28.6934 115.097 29.9218 118.264 30.4911C119.334 30.6834 122.749 30.6158 123.772 30.3822C129.314 29.1162 133.254 25.0946 134.325 19.6104C134.598 18.2127 134.572 15.6757 134.27 14.2537C132.898 7.7957 127.518 3.49779 120.8 3.49414ZM11.3789 4.03019V17.0689V30.1077H21.7885H32.1979V26.9955V23.8834H25.3299H18.4617V21.8981V19.9127H24.5786H30.6956V17.0152V14.1177H24.5786H18.4617V12.186V10.2543H25.2225H31.9834V7.14227V4.03019H21.6811H11.3789ZM38.2416 4.03019C35.9801 4.03019 34.1296 4.06245 34.1296 4.10203C34.1296 4.14161 35.9938 7.01561 38.2723 10.4886C40.5507 13.9615 42.392 16.8629 42.3639 16.936C42.3357 17.0091 40.7298 19.4594 38.7951 22.381C36.8604 25.3027 34.924 28.2364 34.4919 28.9004L33.7063 30.1077H37.764H41.8217L44.2385 26.2489L46.6551 22.3903L49.0552 26.2489L51.4555 30.1077H55.6219H59.7882L59.476 29.6515C58.2378 27.843 51.0854 16.8725 51.0854 16.7819C51.0854 16.7194 52.9446 13.8479 55.217 10.4009C57.4893 6.95381 59.3486 4.10962 59.3486 4.0805C59.3486 4.05138 57.5268 4.04019 55.3003 4.05566L51.2521 4.0838L49.0492 7.6387C47.8377 9.59393 46.8193 11.1783 46.7862 11.1595C46.7531 11.1407 45.7422 9.52887 44.5398 7.57771L42.3535 4.03019H38.2416ZM62.3535 4.03019V17.0689V30.1077H65.9485H69.5435V26.4053V22.703L71.824 22.7026C75.0121 22.7022 76.5271 22.4872 78.3097 21.7821C79.6182 21.2646 80.4912 20.6846 81.5249 19.6464C82.3579 18.8097 82.5803 18.5076 82.9938 17.6501C83.6986 16.1887 83.8289 15.6126 83.8931 13.6752C83.9367 12.3596 83.91 11.8078 83.7691 11.1123C83.0002 7.31753 80.1443 4.84487 75.7683 4.18518C74.9733 4.06533 73.3817 4.0313 68.5509 4.03081L62.3535 4.03019ZM86.9285 4.03019V17.0667V30.1034L89.2626 30.1346C90.5463 30.1517 94.941 30.1768 99.0283 30.1904L106.46 30.2149V26.9955V23.776H100.289H94.1186V13.9031V4.03019H90.5236H86.9285ZM138.225 4.03019V17.1225V30.2149H141.82H145.415V17.1225V4.03019H141.82H138.225ZM148.527 4.03019V7.24964V10.4691H152.391H156.254V20.342V30.2149H159.849H163.444V20.342V10.4691H167.254H171.063V7.24964V4.03019H159.795H148.527ZM69.5435 10.1223L71.7166 10.1743C74.1255 10.2319 74.6271 10.3311 75.5135 10.9261C75.8989 11.1848 76.1214 11.448 76.3826 11.954C76.6903 12.55 76.7336 12.7366 76.7336 13.464C76.7336 13.9573 76.6611 14.5072 76.5547 14.8193C76.3113 15.5336 75.561 16.2683 74.7419 16.5944C74.1556 16.8278 73.9211 16.8512 71.824 16.8856L69.5435 16.9232V13.5228V10.1223ZM120.695 10.1544C121.289 10.1554 121.886 10.2078 122.283 10.3111C124.365 10.8533 126.046 12.4879 126.805 14.7089C127.409 16.4743 127.254 18.8222 126.424 20.503C125.671 22.0253 124.297 23.2356 122.78 23.7116C119.249 24.8193 115.854 22.9864 114.65 19.3226C114.409 18.5891 114.367 18.2685 114.361 17.1225C114.355 16.1448 114.405 15.5919 114.545 15.0835C115.204 12.6934 116.934 10.8892 119.128 10.3054C119.511 10.2035 120.101 10.1533 120.695 10.1544Z" fill="#FEFEFE"/>
<path id="path2" d="M-0.341797 17.0431V-0.449219H4.3264H8.99459V0.4093V1.26782H5.34589H1.69719V17.0431V32.8184H5.34589H8.99459V33.6769V34.5354H4.3264H-0.341797V17.0431ZM173.508 33.6769V32.8184H177.157H180.806V17.0431V1.26782H177.157H173.508V0.4093V-0.449219H178.176H182.845V17.0431V34.5354H178.176H173.508V33.6769Z" fill="#FE6813"/>
</g>
</g>
</g>
<defs>
<clipPath id="clip0_103_1221">
<rect width="183" height="35" fill="white"/>
</clipPath>
</defs>
</svg>
