<svg width="44" height="44" viewBox="0 0 44 44" fill="none" xmlns="http://www.w3.org/2000/svg">
<g id="ic:baseline-reddit">
<path id="Vector" d="M19.7079 23.9067C19.7079 22.8617 18.8462 22 17.8012 22C16.7562 22 15.8945 22.8617 15.8945 23.9067C15.8945 24.4123 16.0954 24.8973 16.453 25.2549C16.8106 25.6125 17.2955 25.8133 17.8012 25.8133C18.3069 25.8133 18.7918 25.6125 19.1494 25.2549C19.507 24.8973 19.7079 24.4123 19.7079 23.9067ZM25.8312 28.2517C25.0062 29.0767 23.2462 29.37 21.9995 29.37C20.7529 29.37 18.9929 29.0767 18.1679 28.2517C18.1233 28.2039 18.0693 28.1659 18.0094 28.1398C17.9495 28.1138 17.8849 28.1004 17.8195 28.1004C17.7542 28.1004 17.6896 28.1138 17.6296 28.1398C17.5697 28.1659 17.5158 28.2039 17.4712 28.2517C17.4235 28.2963 17.3854 28.3502 17.3594 28.4101C17.3333 28.47 17.3199 28.5347 17.3199 28.6C17.3199 28.6653 17.3333 28.73 17.3594 28.7899C17.3854 28.8498 17.4235 28.9037 17.4712 28.9483C18.7729 30.25 21.2662 30.36 21.9995 30.36C22.7329 30.36 25.2262 30.25 26.5279 28.9483C26.5756 28.9037 26.6137 28.8498 26.6397 28.7899C26.6657 28.73 26.6791 28.6653 26.6791 28.6C26.6791 28.5347 26.6657 28.47 26.6397 28.4101C26.6137 28.3502 26.5756 28.2963 26.5279 28.2517C26.3445 28.0683 26.0329 28.0683 25.8312 28.2517ZM26.1979 22C25.1529 22 24.2912 22.8617 24.2912 23.9067C24.2912 24.9517 25.1529 25.8133 26.1979 25.8133C27.2429 25.8133 28.1045 24.9517 28.1045 23.9067C28.1045 22.8617 27.2612 22 26.1979 22Z" fill="white"/>
<path id="Vector_2" d="M22.0003 3.6665C11.8803 3.6665 3.66699 11.8798 3.66699 21.9998C3.66699 32.1198 11.8803 40.3332 22.0003 40.3332C32.1203 40.3332 40.3337 32.1198 40.3337 21.9998C40.3337 11.8798 32.1203 3.6665 22.0003 3.6665ZM32.6337 24.4382C32.6703 24.6948 32.6887 24.9698 32.6887 25.2448C32.6887 29.3515 27.9037 32.6882 22.0003 32.6882C16.097 32.6882 11.312 29.3515 11.312 25.2448C11.312 24.9698 11.3303 24.6948 11.367 24.4382C10.432 24.0165 9.79033 23.0815 9.79033 21.9998C9.78761 21.4741 9.9403 20.9593 10.2292 20.5201C10.5181 20.0809 10.9304 19.7368 11.4142 19.5312C11.898 19.3255 12.4318 19.2674 12.9486 19.3641C13.4653 19.4608 13.942 19.7081 14.3187 20.0748C16.1703 18.7365 18.737 17.8932 21.5787 17.8015L22.9353 11.4032C22.9537 11.2748 23.027 11.1648 23.137 11.1098C23.247 11.0365 23.3753 11.0182 23.5037 11.0365L27.9403 11.9898C28.0908 11.6847 28.3202 11.4254 28.6046 11.2389C28.8891 11.0523 29.2183 10.9452 29.5581 10.9287C29.8979 10.9123 30.2359 10.987 30.537 11.1452C30.8382 11.3034 31.0916 11.5393 31.2708 11.8285C31.4501 12.1176 31.5487 12.4494 31.5565 12.7895C31.5643 13.1296 31.4809 13.4656 31.3151 13.7627C31.1493 14.0597 30.907 14.3069 30.6134 14.4788C30.3198 14.6506 29.9855 14.7407 29.6453 14.7398C28.6187 14.7398 27.7937 13.9332 27.7387 12.9248L23.7603 12.0815L22.5503 17.8015C25.3553 17.8932 27.867 18.7548 29.7003 20.0748C29.9814 19.8065 30.3177 19.6027 30.6857 19.4779C31.0537 19.3531 31.4445 19.3102 31.8308 19.3522C32.2172 19.3942 32.5897 19.5201 32.9222 19.7211C33.2548 19.9221 33.5395 20.1933 33.7563 20.5158C33.9731 20.8383 34.1168 21.2043 34.1774 21.5881C34.238 21.972 34.214 22.3644 34.1071 22.738C34.0001 23.1116 33.8129 23.4574 33.5584 23.751C33.3039 24.0447 32.9883 24.2792 32.6337 24.4382Z" fill="white"/>
</g>
</svg>
