<svg width="47" height="42" viewBox="0 0 47 42" fill="none" xmlns="http://www.w3.org/2000/svg">
<g id="REDDIT LOGO">
<path id="Vector" d="M46.5691 21.0148C46.4648 18.199 44.1009 16.0002 41.2764 16.0958C40.0249 16.1392 38.8342 16.652 37.9304 17.5124C33.95 14.8008 29.2743 13.3147 24.4683 13.2104L26.7366 2.30338L34.2194 3.87643C34.428 5.7971 36.1488 7.18764 38.0695 6.97906C39.9901 6.77048 41.3807 5.04969 41.1721 3.12901C40.9635 1.20833 39.2427 -0.182202 37.322 0.0263788C36.2183 0.13936 35.2275 0.782483 34.68 1.73848L26.1108 0.0263788C25.5286 -0.103984 24.9463 0.261032 24.8159 0.85201C24.8159 0.860701 24.8159 0.8607 24.8159 0.869391L22.2347 13.0018C17.3678 13.08 12.6313 14.5749 8.59877 17.3038C6.54773 15.3744 3.31473 15.47 1.38536 17.5298C-0.544008 19.5808 -0.448408 22.8138 1.61132 24.7432C2.0111 25.1169 2.47172 25.4384 2.98448 25.6644C2.94971 26.1772 2.94971 26.6899 2.98448 27.2027C2.98448 35.0331 12.1099 41.4035 23.3645 41.4035C34.6192 41.4035 43.7446 35.0418 43.7446 27.2027C43.7793 26.6899 43.7793 26.1772 43.7446 25.6644C45.5001 24.7866 46.6039 22.9789 46.5691 21.0148ZM11.6058 24.5172C11.6058 22.5878 13.1788 21.0148 15.1082 21.0148C17.0376 21.0148 18.6106 22.5878 18.6106 24.5172C18.6106 26.4466 17.0376 28.0196 15.1082 28.0196C13.1702 28.0022 11.6058 26.4466 11.6058 24.5172ZM31.9163 34.1293C29.4307 35.9978 26.3889 36.9538 23.2776 36.8235C20.1663 36.9538 17.1245 35.9978 14.6389 34.1293C14.3087 33.7295 14.3695 33.1298 14.7693 32.7996C15.1169 32.5128 15.6123 32.5128 15.9686 32.7996C18.0718 34.3379 20.6356 35.12 23.2429 34.9984C25.8501 35.1374 28.4226 34.39 30.5519 32.8691C30.9343 32.4954 31.56 32.5041 31.9337 32.8865C32.3074 33.2689 32.2987 33.8946 31.9163 34.2683V34.1293ZM31.2906 28.1413C29.3612 28.1413 27.7882 26.5682 27.7882 24.6389C27.7882 22.7095 29.3612 21.1365 31.2906 21.1365C33.22 21.1365 34.793 22.7095 34.793 24.6389C34.8712 26.5682 33.3677 28.1934 31.4383 28.2717C31.3775 28.2717 31.3254 28.2717 31.2645 28.2717L31.2906 28.1413Z" fill="white"/>
</g>
</svg>
