<svg width="103" height="43" viewBox="0 0 103 43" fill="none" xmlns="http://www.w3.org/2000/svg">
<rect width="103" height="43" rx="21.5" fill="#0E6794" fill-opacity="0.33"/>
<g clip-path="url(#clip0_79_143)">
<path d="M51.5 5C47.1249 5 42.9252 6.73946 39.834 9.8327C36.7396 12.9272 35.0009 17.1238 35 21.5C35 25.8743 36.7402 30.0741 39.834 33.1673C42.9252 36.2605 47.1249 38 51.5 38C55.8751 38 60.0748 36.2605 63.166 33.1673C66.2598 30.0741 68 25.8743 68 21.5C68 17.1257 66.2598 12.9259 63.166 9.8327C60.0748 6.73946 55.8751 5 51.5 5Z" fill="url(#paint0_linear_79_143)"/>
<path d="M42.4679 21.3256C47.2787 19.2301 50.4859 17.8484 52.0895 17.181C56.6734 15.275 57.6247 14.9439 58.2461 14.9327C58.3827 14.9305 58.6869 14.9643 58.8854 15.1248C59.0504 15.2601 59.0968 15.4432 59.12 15.5717C59.1407 15.7001 59.169 15.9927 59.1458 16.2211C58.8983 18.8302 57.8232 25.1616 57.2767 28.0839C57.0472 29.3203 56.5909 29.7349 56.15 29.7754C55.191 29.8635 54.4639 29.1422 53.5358 28.534C52.0843 27.5819 51.2645 26.9894 49.8543 26.0605C48.2249 24.987 49.2819 24.3969 50.21 23.4327C50.4524 23.1803 54.6754 19.3401 54.7553 18.9918C54.7656 18.9483 54.7759 18.7859 54.6779 18.7003C54.5825 18.6144 54.4407 18.6438 54.3376 18.667C54.1907 18.7 51.8729 20.2335 47.3767 23.2671C46.7193 23.7194 46.1237 23.9398 45.5875 23.9282C44.9996 23.9155 43.8653 23.5951 43.0222 23.3213C41.991 22.9854 41.1686 22.8077 41.2407 22.2372C41.2768 21.9402 41.6868 21.6362 42.4679 21.3256Z" fill="white"/>
</g>
<defs>
<linearGradient id="paint0_linear_79_143" x1="1685" y1="5" x2="1685" y2="3305" gradientUnits="userSpaceOnUse">
<stop stop-color="#2AABEE"/>
<stop offset="1" stop-color="#229ED9"/>
</linearGradient>
<clipPath id="clip0_79_143">
<rect width="33" height="33" fill="white" transform="translate(35 5)"/>
</clipPath>
</defs>
</svg>
